<svg width="1294" height="526" viewBox="0 0 1294 526" fill="none" xmlns="http://www.w3.org/2000/svg">
    <path
        d="M420.883 525.237C427.775 513.593 434.633 501.936 441.558 490.319C450.329 475.6 459.133 460.901 467.971 446.222C468.405 445.564 468.679 444.814 468.773 444.032C468.867 443.249 468.777 442.455 468.511 441.713C453.481 391.629 438.478 341.534 423.502 291.427C422.308 287.431 422.301 287.431 426.405 287.431C444.15 287.431 461.902 287.471 479.648 287.384C481.815 287.384 482.672 287.836 483.138 290.158C488.389 316.483 493.829 342.807 499.162 369.132C500.337 374.916 501.053 380.784 501.302 386.682C503.036 381.957 504.447 377.704 506.114 373.587C513.289 355.855 522.314 338.993 530.522 321.734C535.625 310.968 540.924 300.283 546.101 289.55C546.701 288.308 547.16 287.357 548.909 287.364C568.747 287.431 588.585 287.411 608.416 287.417C608.774 287.463 609.128 287.536 609.476 287.633C607.012 292.257 604.649 296.753 602.24 301.228C574.457 352.797 546.67 404.362 518.878 455.922C506.801 478.332 494.729 500.741 482.665 523.151C482.314 523.826 481.72 524.373 481.828 525.176L420.883 525.237Z"
        fill="#18939B" />
    <path
        d="M1186.58 332.844C1190.32 327.296 1193.79 321.673 1197.92 316.496C1207.11 304.981 1218.8 298.534 1233.77 298.042C1239.91 297.83 1246.04 298.498 1251.99 300.026C1253.83 300.499 1254.06 301.234 1253.42 302.922C1251.06 309.112 1248.75 315.321 1246.62 321.585C1245.94 323.61 1245.06 323.84 1243.16 323.219C1233.89 320.202 1224.55 320.08 1215.33 323.307C1204.59 327.066 1198.26 335.159 1194.4 345.439C1190.43 355.963 1189.34 366.978 1189.28 378.089C1189.16 401.889 1189.21 425.689 1189.28 449.489C1189.28 451.865 1188.7 452.506 1186.32 452.439C1179.88 452.263 1173.41 452.236 1166.96 452.439C1164.35 452.52 1163.88 451.669 1163.89 449.253C1163.96 410.756 1163.97 372.259 1163.93 333.762C1163.93 324.279 1163.99 314.795 1163.89 305.311C1163.89 303.354 1164.42 302.699 1166.44 302.74C1172.32 302.87 1178.2 302.87 1184.09 302.74C1186.06 302.699 1186.68 303.273 1186.66 305.278C1186.52 314.478 1186.58 323.664 1186.58 332.844Z"
        fill="#3CCCD6" />
    <path
        d="M496.063 0.587241C486.668 7.63414 477.893 15.356 469.266 23.2534L452.277 39.9932L434.018 59.8311L411.271 86.6687L387.91 117.273L369.786 143.496L351.46 173.196C346.601 182.362 341.7 191.508 336.894 200.708C334.808 204.711 332.912 208.808 330.927 212.892C327.384 221.815 323.394 230.563 320.357 239.689C318.872 244.151 317.427 248.626 315.706 253.121C314.255 246.682 312.844 240.263 311.089 233.925C307.336 222.45 302.746 211.393 296.678 200.951C295.328 198.67 294.012 196.402 292.676 194.127C285.251 182.936 276.476 172.872 267.701 162.801C260.985 155.619 253.6 149.139 246.439 142.423L232.284 131.151C223.793 125.244 215.409 119.183 205.818 113.837C212.629 111.191 219 109.18 225.872 109.166C231.562 108.073 237.212 108.748 242.78 109.888C244.232 110.185 245.811 110.179 247.174 110.901C254.93 112.082 262.024 115.133 268.882 118.751C277.927 123.348 286.601 128.532 294.404 135.065C300.107 139.554 305.73 144.131 310.401 149.733C311.683 149.659 311.98 148.484 312.541 147.708C317.772 140.33 322.942 132.912 328.153 125.514C328.626 124.936 329.138 124.39 329.685 123.881C336.145 114.512 342.895 105.413 350.117 96.6856C355.634 89.1643 361.589 81.9745 367.95 75.1534C373.588 68.3128 379.662 61.8441 386.135 55.7879C393.69 48.0721 401.874 40.9986 410.603 34.6405C417.699 28.9761 425.321 24.0036 433.364 19.7907C438.923 16.4075 444.793 13.5641 450.893 11.2993C456.803 8.60247 462.955 6.47124 469.266 4.93418C477.418 2.43514 485.805 0.781706 494.295 0C494.923 0.0877487 495.625 -0.067499 496.063 0.587241Z"
        fill="#18939B" />
    <path
        d="M204.522 276.118C202.045 249.179 184.947 227.553 159.298 219.028C146.756 214.856 133.749 213.756 120.742 213.553C93.8911 213.128 67.0265 213.364 40.1687 213.25C38.3799 213.25 37.9074 213.925 37.6712 215.47C35.5922 228.745 33.4908 242.02 31.3668 255.295C26.1514 288.189 20.9359 321.077 15.7205 353.958C11.4073 381.039 7.15489 408.14 2.76746 435.227C1.95747 440.202 1.71447 445.304 0 450.124V452.399H56.3752C63.3883 452.399 63.3883 452.399 64.5763 445.649C64.718 444.805 64.8058 443.961 64.9475 443.118C68.7725 419.304 72.5974 395.483 76.4224 371.656C76.7531 369.584 77.5833 369.118 79.5543 369.145C87.3369 369.267 95.1263 369.361 102.902 369.145C115.95 368.808 129.024 368.963 142.052 367.168C165.197 363.961 182.214 351.953 193.594 331.771C203.3 314.437 206.297 295.781 204.522 276.118ZM135.133 310.212C130.449 314.026 124.65 315.315 118.866 316.321C111.134 317.637 103.3 318.258 95.4571 318.177C92.6086 318.177 89.7669 318.13 86.9252 318.177C85.5752 318.211 84.9002 318.076 85.204 316.368C87.9579 299.581 90.6039 282.78 93.3039 265.987C93.4659 264.954 93.4254 264.036 95.0116 264.043C105.217 264.083 115.457 263.678 125.447 266.365C134.559 268.815 141.599 273.715 143.246 283.665C144.88 293.742 143.678 303.226 135.099 310.212H135.133Z"
        fill="#18939B" />
    <path
        d="M408.545 287.384C392.885 287.478 377.218 287.431 361.559 287.431C356.159 287.431 356.159 287.431 355.382 292.919C354.512 298.879 353.526 304.826 352.507 311.279L350.482 308.66C344.866 301.532 338.481 295.16 330.502 290.745C309.672 279.156 287.978 279.581 266.459 287.883C244.272 296.442 229.638 313.276 219.851 334.491C213.742 347.728 211.198 361.801 210.665 376.341C210.131 390.88 211.61 405.129 217.475 418.588C224.765 435.308 236.004 448.713 253.695 454.532C280.02 463.192 303.881 457.468 324.866 439.473C327.924 436.854 330.63 433.87 333.864 430.461C333 437.495 332.325 443.779 331.413 450.036C331.116 452.061 331.683 452.426 333.546 452.419C350.066 452.36 366.583 452.36 383.097 452.419C384.704 452.419 385.372 452.041 385.642 450.299C388.207 433.654 390.9 417.036 393.533 400.397C399.329 363.664 405.138 326.947 410.961 290.246C411.339 287.856 410.84 287.37 408.545 287.384ZM318.676 408.275C308.97 412.183 299.014 411.866 289.335 407.984C277.185 403.131 270.732 393.81 269.402 380.985C268.201 369.395 269.915 358.265 276.307 348.295C284.225 335.956 295.598 329.537 310.34 329.334C326.905 328.835 338.967 338.744 343.003 350.624C349.382 369.388 342.173 398.831 318.676 408.275Z"
        fill="#18939B" />
    <path
        d="M767.119 201.363C767.41 199.534 766.546 199.149 764.865 199.169C758.034 199.25 751.196 199.331 744.366 199.169C741.875 199.095 741.477 199.932 741.483 202.193C741.564 228.18 741.537 254.168 741.537 280.141V330.765C739.303 326.62 736.736 322.663 733.863 318.933C731.056 315.343 727.819 312.113 724.224 309.314C708.274 297.205 690.171 295.497 671.298 299.129C648.814 303.462 633.66 317.225 624.258 337.657C618.993 349.132 617.029 361.322 616.664 373.83C616.171 390.819 618.406 407.289 626.526 422.544C641.909 451.379 670.157 462.193 698.75 457.697C716.819 454.862 730.11 444.69 739.836 429.51C740.511 428.49 740.869 427.201 742.3 426.303C742.3 434.167 742.395 441.653 742.246 449.132C742.199 451.602 742.685 452.588 745.446 452.507C751.52 452.27 757.595 452.243 763.67 452.507C766.667 452.642 767.173 451.67 767.173 448.902C767.101 366.877 767.081 284.853 767.113 202.828C767.079 202.34 767.081 201.851 767.119 201.363V201.363ZM735.125 410.515C726.647 425.608 713.363 432.905 696.32 433.728C688.821 434.093 681.369 433.728 674.221 430.988C663.212 426.776 655.145 419.243 650.42 408.619C641.963 389.577 640.883 369.895 648.092 350.32C654.214 333.654 669.955 323.489 687.741 323.118C697.339 322.909 706.674 323.617 715.307 328.18C729.712 335.801 737.67 348.14 740.957 363.786C741.868 368.544 742.32 373.379 742.307 378.224C742.158 389.841 740.653 400.667 735.125 410.515V410.515Z"
        fill="#3CCCD6" />
    <path
        d="M836.907 381.369C855.806 381.369 874.693 381.369 893.565 381.369H950.217C951.756 381.369 953.106 381.653 953.12 379.196C953.174 368.356 952.445 357.596 949.36 347.161C943.285 326.277 930.946 310.603 910.386 302.348C899.276 297.887 887.605 296.638 875.617 297.455C866.748 298.055 858.176 299.723 850.076 303.226C832.526 310.813 820.295 323.887 812.891 341.295C804.791 360.33 804.325 380.181 808.577 400.114C813.032 420.991 824.102 437.616 842.712 448.592C857.453 457.306 873.673 459.581 890.595 458.291C917.251 456.266 936.866 443.225 950.568 420.634C951.79 418.609 951.918 417.549 949.67 416.206C945.769 413.884 942.104 411.17 938.324 408.639C936.596 407.478 934.78 405.386 933.106 405.48C931.081 405.588 930.568 408.619 929.401 410.36C917.973 427.397 903.076 438.217 881.544 437.164C864.669 436.334 851.169 429.334 842.057 414.781C835.982 405.136 834.348 394.363 834.018 383.253C833.943 380.829 835.59 381.369 836.907 381.369ZM834.396 358.319C836.326 346.02 841.524 335.565 851.831 328.187C857.975 323.699 865.191 320.906 872.755 320.087C883.616 318.987 894.355 319.561 904.318 324.691C918.02 331.751 923.893 343.779 925.519 358.494C925.742 360.586 924.797 360.755 923.11 360.748C908.685 360.701 894.261 360.748 879.836 360.748C865.411 360.748 851.176 360.748 836.846 360.789C834.963 360.782 834.051 360.492 834.396 358.325V358.319Z"
        fill="#3CCCD6" />
    <path
        d="M1009.61 381.315C1028.3 381.403 1047 381.363 1065.69 381.363C1084.59 381.363 1103.49 381.363 1122.35 381.41C1124.43 381.41 1125.11 380.931 1125.05 378.75C1124.91 369.834 1124.49 360.958 1122.51 352.223C1118.57 334.815 1110.36 320.013 1095.52 309.544C1078.33 297.441 1058.91 295.018 1038.82 298.433C1012.61 302.895 994.503 318.42 984.817 342.834C975.468 366.331 976.042 390.374 985.35 413.809C992.64 432.216 1005.71 445.534 1024.23 453.121C1036.66 458.197 1049.65 459.371 1062.95 458.271C1089.84 456.037 1109.44 442.652 1122.97 419.702C1123.94 418.055 1123.38 417.427 1122.1 416.597C1117.9 413.85 1113.75 411.035 1109.57 408.247C1104.67 404.98 1104.68 404.987 1101.58 409.759C1100.86 410.873 1100.13 411.98 1099.36 413.053C1088.08 428.7 1073.52 438.075 1053.5 437.198C1040 436.604 1028.52 431.798 1019.46 421.524C1010.09 410.833 1006.86 398.082 1006.51 384.265C1006.49 381.822 1007.31 381.302 1009.61 381.315ZM1006.96 357.691C1009.89 335.679 1028.06 319.817 1050.28 319.696C1057.82 319.655 1065.22 320.148 1072.28 322.922C1086.78 328.619 1094.44 339.709 1096.9 354.728C1097.88 360.701 1097.8 360.715 1091.76 360.715H1051.94C1037.81 360.715 1023.68 360.647 1009.56 360.782C1006.94 360.829 1006.67 359.857 1006.96 357.745V357.691Z"
        fill="#3CCCD6" />
    <path
        d="M1237.26 248.07C1237.26 242.511 1238.91 237.078 1242.01 232.461C1245.11 227.845 1249.51 224.254 1254.65 222.144C1259.79 220.034 1265.45 219.501 1270.89 220.613C1276.34 221.725 1281.33 224.431 1285.24 228.387C1289.15 232.344 1291.79 237.372 1292.83 242.833C1293.87 248.294 1293.26 253.941 1291.08 259.056C1288.91 264.171 1285.26 268.524 1280.6 271.56C1275.94 274.597 1270.49 276.18 1264.93 276.109C1257.56 276.008 1250.52 273.01 1245.35 267.763C1240.17 262.516 1237.26 255.442 1237.26 248.07V248.07ZM1265.29 272.653C1270.15 272.653 1274.9 271.212 1278.94 268.512C1282.98 265.812 1286.13 261.974 1287.99 257.484C1289.85 252.994 1290.33 248.054 1289.39 243.288C1288.44 238.522 1286.1 234.144 1282.66 230.708C1279.22 227.272 1274.84 224.932 1270.08 223.985C1265.31 223.038 1260.37 223.525 1255.88 225.386C1251.39 227.247 1247.56 230.397 1244.86 234.438C1242.16 238.48 1240.72 243.231 1240.72 248.09C1240.73 254.602 1243.33 260.842 1247.93 265.445C1252.54 270.049 1258.78 272.641 1265.29 272.653V272.653Z"
        fill="#FCFFFF" />
    <path
        d="M1270.92 250.297C1273.13 254.435 1275.33 258.546 1277.52 262.663C1277.52 262.704 1277.52 262.764 1277.52 262.852H1274.99C1274.13 262.852 1273.27 262.852 1272.41 262.852C1272.29 262.862 1272.17 262.834 1272.07 262.77C1271.97 262.707 1271.9 262.612 1271.86 262.501C1270.02 258.964 1268.17 255.434 1266.34 251.897C1266.29 251.765 1266.19 251.653 1266.07 251.578C1265.95 251.503 1265.81 251.468 1265.67 251.479C1263.94 251.479 1262.21 251.479 1260.43 251.479V262.812H1255.31V233.315H1255.75C1259.09 233.315 1262.42 233.315 1265.75 233.315C1267.87 233.249 1269.98 233.671 1271.9 234.55C1273.12 235.117 1274.16 235.999 1274.93 237.103C1275.69 238.207 1276.15 239.495 1276.25 240.834C1276.54 242.669 1276.28 244.548 1275.49 246.234C1274.61 247.961 1273.16 249.33 1271.38 250.108L1270.92 250.297ZM1260.4 247.3C1260.44 247.319 1260.49 247.333 1260.54 247.341C1262.47 247.341 1264.4 247.341 1266.34 247.341C1267.46 247.333 1268.56 246.959 1269.45 246.274C1270.88 245.161 1271.27 243.622 1271.14 241.907C1271.14 241.07 1270.88 240.253 1270.42 239.557C1269.95 238.861 1269.29 238.317 1268.52 237.992C1267.62 237.636 1266.66 237.464 1265.69 237.486H1260.79H1260.4V247.3Z"
        fill="#FCFFFF" />
</svg>